<svg width="105" height="40" viewBox="0 0 105 40" fill="none" xmlns="http://www.w3.org/2000/svg">
<g clip-path="url(#clip0_20_903)">
<path d="M48.1328 35.2381H50.8672V24.9238H48.1328V35.2381ZM48.1328 23.3153H50.8672V20.8624H48.1328V23.3153Z" fill="#D8D8D8"/>
<path d="M52.6289 38.6159H55.3633V34.072H55.4036C55.9866 34.9566 56.9316 35.5397 58.3792 35.5397C61.0332 35.5397 62.8427 33.4286 62.8427 30.091C62.8427 26.874 61.0935 24.6423 58.3591 24.6423C56.9517 24.6423 55.9866 25.3058 55.3231 26.2105H55.2628V24.9238H52.6289V38.6159ZM57.7962 33.2677C56.1676 33.2677 55.303 32.0413 55.303 30.1714C55.303 28.3217 55.9866 26.8539 57.6956 26.8539C59.3845 26.8539 60.0681 28.2211 60.0681 30.1714C60.0681 32.1217 59.1835 33.2677 57.7962 33.2677Z" fill="#D8D8D8"/>
<path d="M68.2972 35.5397C70.8707 35.5397 72.64 34.2931 72.64 32.2222C72.64 29.8095 70.73 29.327 69.0009 28.9651C67.5331 28.6635 66.1659 28.583 66.1659 27.6984C66.1659 26.9545 66.8696 26.5523 67.9353 26.5523C69.1014 26.5523 69.8051 26.9545 69.9257 28.0603H72.3988C72.1977 25.9894 70.6898 24.6423 67.9755 24.6423C65.6231 24.6423 63.7733 25.7079 63.7733 27.9396C63.7733 30.1915 65.5829 30.6942 67.4326 31.0561C68.84 31.3375 70.1469 31.4381 70.1469 32.4233C70.1469 33.1471 69.4633 33.6095 68.2569 33.6095C67.0305 33.6095 66.186 33.0868 66.0051 31.9005H63.4717C63.6326 34.0921 65.3014 35.5397 68.2972 35.5397Z" fill="#D8D8D8"/>
<path d="M83.0216 35.2381V24.9238H80.2872V30.8751C80.2872 32.2423 79.5031 33.2074 78.2163 33.2074C77.0502 33.2074 76.5073 32.5439 76.5073 31.3375V24.9238H73.793V31.8C73.793 34.0518 75.0798 35.5196 77.3719 35.5196C78.8195 35.5196 79.6237 34.9767 80.3275 34.0317H80.3878V35.2381H83.0216Z" fill="#D8D8D8"/>
<path d="M84.7905 35.2381H87.525V29.2465C87.525 27.8793 88.2689 26.9947 89.3747 26.9947C90.38 26.9947 90.9631 27.5978 90.9631 28.764V35.2381H93.6975V29.2465C93.6975 27.8793 94.4012 26.9947 95.5472 26.9947C96.5525 26.9947 97.1356 27.5978 97.1356 28.764V35.2381H99.87V28.3016C99.87 26.0497 98.6435 24.6423 96.4721 24.6423C95.1652 24.6423 94.0795 25.3259 93.3758 26.4518H93.3356C92.8329 25.3661 91.7874 24.6423 90.4805 24.6423C89.053 24.6423 88.0477 25.3661 87.4847 26.3111H87.4244V24.9238H84.7905V35.2381Z" fill="#D8D8D8"/>
<path d="M48.1729 17.572H50.9072V3.19629H48.1729V17.572Z" fill="#D8D8D8"/>
<path d="M57.593 17.8736C60.7899 17.8736 62.9814 15.5011 62.9814 12.4249C62.9814 9.34869 60.7899 6.9762 57.593 6.9762C54.3962 6.9762 52.2046 9.34869 52.2046 12.4249C52.2046 15.5011 54.3962 17.8736 57.593 17.8736ZM57.593 15.7826C55.9041 15.7826 54.9793 14.4355 54.9793 12.4249C54.9793 10.4143 55.9041 9.04711 57.593 9.04711C59.2618 9.04711 60.2068 10.4143 60.2068 12.4249C60.2068 14.4355 59.2618 15.7826 57.593 15.7826Z" fill="#D8D8D8"/>
<path d="M68.7966 21.0906C70.3247 21.0906 71.6517 20.7287 72.5162 19.9244C73.2802 19.2207 73.7427 18.2355 73.7427 16.7879V7.25768H71.1088V8.3434H71.0686C70.4453 7.47884 69.5003 6.9762 68.2135 6.9762C65.5998 6.9762 63.75 8.94658 63.75 12.0228C63.75 15.1392 66.0019 16.9487 68.294 16.9487C69.6009 16.9487 70.385 16.426 70.9882 15.7424H71.0485V16.8683C71.0485 18.2757 70.3046 19.0196 68.7564 19.0196C67.4897 19.0196 66.9067 18.517 66.6855 17.8736H63.9712C64.2527 19.8842 65.9818 21.0906 68.7966 21.0906ZM68.7564 14.7572C67.349 14.7572 66.4241 13.7318 66.4241 11.9826C66.4241 10.2535 67.349 9.16774 68.7363 9.16774C70.385 9.16774 71.1892 10.4545 71.1892 11.9625C71.1892 13.4905 70.4855 14.7572 68.7564 14.7572Z" fill="#D8D8D8"/>
<path d="M80.3889 17.8736C83.5857 17.8736 85.7773 15.5011 85.7773 12.4249C85.7773 9.34869 83.5857 6.9762 80.3889 6.9762C77.1921 6.9762 75.0005 9.34869 75.0005 12.4249C75.0005 15.5011 77.1921 17.8736 80.3889 17.8736ZM80.3889 15.7826C78.7 15.7826 77.7751 14.4355 77.7751 12.4249C77.7751 10.4143 78.7 9.04711 80.3889 9.04711C82.0577 9.04711 83.0027 10.4143 83.0027 12.4249C83.0027 14.4355 82.0577 15.7826 80.3889 15.7826Z" fill="#D8D8D8"/>
<path d="M88.1743 13.6313H99.9964V11.2789H88.1743V13.6313Z" fill="#D8D8D8"/>
<path d="M100.864 23.1717C100.864 22.709 101.239 22.3339 101.702 22.3339H103.377C103.84 22.3339 104.215 22.709 104.215 23.1717C104.215 23.6343 103.84 24.0094 103.377 24.0094H101.702C101.239 24.0094 100.864 23.6343 100.864 23.1717Z" fill="#D8D8D8"/>
<path fill-rule="evenodd" clip-rule="evenodd" d="M20.5181 0C31.5638 0 40.5181 8.9543 40.5181 20C40.5181 31.0457 31.5638 40 20.5181 40C9.47237 40 0.518066 31.0457 0.518066 20C0.518066 8.9543 9.47237 0 20.5181 0ZM19.7952 1.49659C17.5136 1.81769 15.341 3.65108 13.6545 6.7174C13.1653 7.60683 12.7239 8.58946 12.3392 9.65044C14.6324 9.07417 17.1515 8.73442 19.7952 8.68187V1.49659ZM10.6489 10.1308C11.1272 8.62958 11.7124 7.2484 12.3877 6.02065C13.2237 4.50059 14.2159 3.18795 15.3338 2.17977C9.25486 3.94523 4.46329 8.73679 2.69784 14.8157C3.70601 13.6978 5.01866 12.7056 6.53872 11.8696C7.76647 11.1943 9.14764 10.6091 10.6489 10.1308ZM10.1685 11.8211C9.59223 14.1143 9.25249 16.6334 9.19994 19.2771H2.01465C2.33576 16.9954 4.16915 14.8228 7.23547 13.1364C8.1249 12.6472 9.10753 12.2058 10.1685 11.8211ZM10.6461 19.2771C10.7058 16.392 11.1211 13.6834 11.8083 11.2902C14.2015 10.603 16.9102 10.1876 19.7952 10.1279V13.2508C18.7189 16.0062 16.5237 18.2012 13.7682 19.2771H10.6461ZM9.19994 20.7229H2.01465C2.33576 23.0046 4.16915 25.1771 7.23547 26.8636C8.1249 27.3528 9.10753 27.7942 10.1685 28.1789C9.59223 25.8857 9.25249 23.3666 9.19994 20.7229ZM11.8083 28.7098C11.1211 26.3166 10.7058 23.608 10.6461 20.7229H13.7682C16.5237 21.7988 18.719 23.9938 19.7952 26.7492V29.8721C16.9102 29.8124 14.2015 29.397 11.8083 28.7098ZM10.6489 29.8692C9.14764 29.3909 7.76647 28.8057 6.53872 28.1304C5.01866 27.2944 3.70601 26.3022 2.69784 25.1843C4.46329 31.2632 9.25486 36.0548 15.3338 37.8202C14.2159 36.812 13.2237 35.4994 12.3877 33.9793C11.7124 32.7516 11.1272 31.3704 10.6489 29.8692ZM19.7952 38.5034C17.5136 38.1823 15.341 36.3489 13.6545 33.2826C13.1653 32.3932 12.7239 31.4105 12.3392 30.3496C14.6324 30.9258 17.1515 31.2656 19.7952 31.3181V38.5034ZM25.7024 37.8202C26.8203 36.812 27.8125 35.4994 28.6486 33.9793C29.3238 32.7516 29.909 31.3704 30.3873 29.8692C31.8885 29.3909 33.2697 28.8057 34.4975 28.1304C36.0175 27.2944 37.3302 26.3022 38.3383 25.1843C36.5729 31.2632 31.7813 36.0548 25.7024 37.8202ZM28.697 30.3496C28.3123 31.4105 27.8709 32.3932 27.3817 33.2826C25.6953 36.3489 23.5227 38.1823 21.241 38.5034V31.3181C23.8847 31.2656 26.4038 30.9258 28.697 30.3496ZM30.8677 28.1789C31.9286 27.7942 32.9113 27.3528 33.8007 26.8636C36.867 25.1771 38.7004 23.0046 39.0215 20.7229H31.8362C31.7837 23.3666 31.4439 25.8857 30.8677 28.1789ZM30.3902 20.7229C30.3305 23.608 29.9151 26.3166 29.2279 28.7098C26.8347 29.397 24.1261 29.8124 21.241 29.8721V26.7515C22.3169 23.9951 24.5126 21.7991 27.2689 20.7229H30.3902ZM31.8362 19.2771H39.0215C38.7004 16.9954 36.867 14.8228 33.8007 13.1364C32.9113 12.6472 31.9286 12.2058 30.8677 11.8211C31.4439 14.1143 31.7837 16.6334 31.8362 19.2771ZM29.2279 11.2902C29.9151 13.6834 30.3305 16.392 30.3902 19.2771H27.2689C24.5126 18.2009 22.3169 16.0049 21.241 13.2485V10.1279C24.1261 10.1876 26.8347 10.603 29.2279 11.2902ZM30.3873 10.1308C31.8885 10.6091 33.2697 11.1943 34.4975 11.8696C36.0175 12.7056 37.3302 13.6978 38.3383 14.8157C36.5729 8.73679 31.7813 3.94523 25.7024 2.17977C26.8203 3.18795 27.8125 4.50059 28.6486 6.02065C29.3238 7.2484 29.909 8.62958 30.3873 10.1308ZM21.241 1.49659C23.5227 1.81769 25.6953 3.65108 27.3817 6.7174C27.8709 7.60684 28.3123 8.58946 28.697 9.65044C26.4038 9.07417 23.8847 8.73442 21.241 8.68187V1.49659Z" fill="#D8D8D8"/>
</g>
<defs>
<clipPath id="clip0_20_903">
<rect width="105" height="40" fill="white" transform="translate(-0.00341797)"/>
</clipPath>
</defs>
</svg>
