<svg width="154" height="34" viewBox="0 0 154 34" fill="none" xmlns="http://www.w3.org/2000/svg">
<path d="M45.106 22.6914C45.106 23.4336 44.9536 24.0039 44.6489 24.4023C44.3521 24.8008 43.856 25 43.1607 25C42.5044 25 42.0396 24.8008 41.7661 24.4023C41.5005 24.0039 41.3677 23.4336 41.3677 22.6914V10.3047C41.3677 9.5625 41.5005 8.99219 41.7661 8.59375C42.0396 8.19531 42.5044 7.99609 43.1607 7.99609C43.856 7.99609 44.3521 8.19531 44.6489 8.59375C44.9536 8.99219 45.106 9.5625 45.106 10.3047V22.6914Z" fill="#D8D8D8"/>
<path d="M46.2407 19.0938C46.2407 18.2656 46.3735 17.4844 46.6392 16.75C46.9126 16.0078 47.3188 15.3594 47.8579 14.8047C48.4048 14.25 49.0845 13.8086 49.897 13.4805C50.7173 13.1523 51.6782 12.9883 52.7798 12.9883C53.8345 12.9883 54.7681 13.1406 55.5806 13.4453C56.3931 13.75 57.0767 14.1758 57.6313 14.7227C58.186 15.2617 58.6079 15.9062 58.897 16.6562C59.186 17.3984 59.3306 18.2109 59.3306 19.0938C59.3306 19.9141 59.1938 20.6914 58.9204 21.4258C58.647 22.1523 58.2368 22.793 57.6899 23.3477C57.1431 23.8945 56.4595 24.332 55.6392 24.6602C54.8188 24.9805 53.8657 25.1406 52.7798 25.1406C51.7095 25.1406 50.7642 24.9883 49.9438 24.6836C49.1313 24.3711 48.4478 23.9453 47.8931 23.4062C47.3462 22.8594 46.9321 22.2188 46.6509 21.4844C46.3774 20.7422 46.2407 19.9453 46.2407 19.0938ZM50.1431 19.0938C50.1431 19.6094 50.1899 20.1016 50.2837 20.5703C50.3774 21.0312 50.5259 21.4375 50.729 21.7891C50.9399 22.1406 51.2134 22.4219 51.5493 22.6328C51.8853 22.8359 52.2954 22.9375 52.7798 22.9375C53.2251 22.9375 53.6118 22.8438 53.9399 22.6562C54.2759 22.4688 54.5493 22.207 54.7603 21.8711C54.979 21.5352 55.1431 21.1328 55.2524 20.6641C55.3618 20.1875 55.4165 19.6641 55.4165 19.0938C55.4165 18.5781 55.3657 18.0898 55.2642 17.6289C55.1704 17.1602 55.0181 16.75 54.8071 16.3984C54.5962 16.0391 54.3228 15.7578 53.9868 15.5547C53.6587 15.3438 53.2563 15.2383 52.7798 15.2383C52.3032 15.2383 51.897 15.3398 51.561 15.543C51.2251 15.7461 50.9517 16.0234 50.7407 16.375C50.5298 16.7266 50.3774 17.1367 50.2837 17.6055C50.1899 18.0742 50.1431 18.5703 50.1431 19.0938Z" fill="#D8D8D8"/>
<path d="M68.9498 22.7383C68.7388 23.1289 68.481 23.4609 68.1763 23.7344C67.8795 24.0078 67.5474 24.2344 67.1803 24.4141C66.8209 24.5859 66.4342 24.7148 66.0201 24.8008C65.6138 24.8789 65.1959 24.918 64.7662 24.918C64.0474 24.918 63.3912 24.7891 62.7974 24.5312C62.2037 24.2734 61.692 23.9023 61.2623 23.418C60.8404 22.9258 60.5123 22.3242 60.2779 21.6133C60.0435 20.9023 59.9263 20.0898 59.9263 19.1758C59.9263 18.3164 60.0357 17.5117 60.2545 16.7617C60.4732 16.0117 60.7896 15.3594 61.2037 14.8047C61.6256 14.25 62.1412 13.8125 62.7506 13.4922C63.3599 13.1719 64.0553 13.0117 64.8365 13.0117C65.7271 13.0117 66.5162 13.1836 67.2037 13.5273C67.899 13.8711 68.4967 14.4336 68.9967 15.2148V14.9102C68.9967 14.3477 69.149 13.9258 69.4537 13.6445C69.7662 13.3555 70.1959 13.2109 70.7428 13.2109C71.0709 13.2109 71.3482 13.2656 71.5748 13.375C71.8013 13.4766 71.981 13.6328 72.1138 13.8438C72.2467 14.0469 72.3404 14.3008 72.3951 14.6055C72.4576 14.9023 72.4888 15.2422 72.4888 15.625V23.4766C72.4888 24.4297 72.3678 25.2812 72.1256 26.0312C71.8912 26.7812 71.524 27.4141 71.024 27.9297C70.524 28.4453 69.8834 28.8359 69.1021 29.1016C68.3209 29.375 67.3912 29.5117 66.3131 29.5117C65.5553 29.5117 64.8834 29.4766 64.2974 29.4062C63.7193 29.3438 63.2193 29.2461 62.7974 29.1133C62.3756 28.9648 62.0553 28.8008 61.8365 28.6211C61.6256 28.4414 61.5201 28.207 61.5201 27.918C61.5201 27.7539 61.5435 27.5977 61.5904 27.4492C61.6373 27.3008 61.7076 27.168 61.8013 27.0508C61.9029 26.9414 62.0318 26.8516 62.1881 26.7812C62.3521 26.7188 62.5513 26.6875 62.7857 26.6875C63.0357 26.6875 63.2857 26.7031 63.5357 26.7344C63.7935 26.7656 64.0592 26.7969 64.3326 26.8281C64.6138 26.8672 64.9068 26.9023 65.2115 26.9336C65.524 26.9648 65.8599 26.9805 66.2193 26.9805C66.649 26.9805 67.0318 26.9375 67.3678 26.8516C67.7037 26.7656 67.9888 26.6133 68.2232 26.3945C68.4576 26.1758 68.6373 25.8828 68.7623 25.5156C68.8873 25.1562 68.9498 24.6953 68.9498 24.1328V22.7383ZM68.9498 19.0938C68.9498 18.5234 68.9068 18.0039 68.8209 17.5352C68.7428 17.0664 68.606 16.668 68.4107 16.3398C68.2154 16.0039 67.9537 15.7461 67.6256 15.5664C67.2974 15.3789 66.8873 15.2852 66.3951 15.2852C65.9107 15.2852 65.5084 15.3828 65.1881 15.5781C64.8756 15.7734 64.6256 16.043 64.4381 16.3867C64.2506 16.7305 64.1178 17.1328 64.0396 17.5938C63.9693 18.0547 63.9342 18.5469 63.9342 19.0703C63.9342 20.2656 64.1451 21.1641 64.567 21.7656C64.9888 22.3672 65.6021 22.668 66.4068 22.668C66.7818 22.6602 67.1217 22.5898 67.4263 22.457C67.7388 22.3164 68.0084 22.1016 68.2349 21.8125C68.4615 21.5234 68.6373 21.1562 68.7623 20.7109C68.8873 20.2656 68.9498 19.7266 68.9498 19.0938Z" fill="#D8D8D8"/>
<path d="M73.5654 19.0938C73.5654 18.2656 73.6982 17.4844 73.9638 16.75C74.2373 16.0078 74.6435 15.3594 75.1826 14.8047C75.7295 14.25 76.4091 13.8086 77.2216 13.4805C78.042 13.1523 79.0029 12.9883 80.1045 12.9883C81.1591 12.9883 82.0927 13.1406 82.9052 13.4453C83.7177 13.75 84.4013 14.1758 84.956 14.7227C85.5107 15.2617 85.9326 15.9062 86.2216 16.6562C86.5107 17.3984 86.6552 18.2109 86.6552 19.0938C86.6552 19.9141 86.5185 20.6914 86.2451 21.4258C85.9716 22.1523 85.5615 22.793 85.0146 23.3477C84.4677 23.8945 83.7841 24.332 82.9638 24.6602C82.1435 24.9805 81.1904 25.1406 80.1045 25.1406C79.0341 25.1406 78.0888 24.9883 77.2685 24.6836C76.456 24.3711 75.7724 23.9453 75.2177 23.4062C74.6709 22.8594 74.2568 22.2188 73.9755 21.4844C73.7021 20.7422 73.5654 19.9453 73.5654 19.0938ZM77.4677 19.0938C77.4677 19.6094 77.5146 20.1016 77.6084 20.5703C77.7021 21.0312 77.8505 21.4375 78.0537 21.7891C78.2646 22.1406 78.538 22.4219 78.874 22.6328C79.2099 22.8359 79.6201 22.9375 80.1045 22.9375C80.5498 22.9375 80.9365 22.8438 81.2646 22.6562C81.6005 22.4688 81.874 22.207 82.0849 21.8711C82.3037 21.5352 82.4677 21.1328 82.5771 20.6641C82.6865 20.1875 82.7412 19.6641 82.7412 19.0938C82.7412 18.5781 82.6904 18.0898 82.5888 17.6289C82.4951 17.1602 82.3427 16.75 82.1318 16.3984C81.9209 16.0391 81.6474 15.7578 81.3115 15.5547C80.9834 15.3438 80.581 15.2383 80.1045 15.2383C79.6279 15.2383 79.2216 15.3398 78.8857 15.543C78.5498 15.7461 78.2763 16.0234 78.0654 16.375C77.8545 16.7266 77.7021 17.1367 77.6084 17.6055C77.5146 18.0742 77.4677 18.5703 77.4677 19.0938Z" fill="#D8D8D8"/>
<path d="M91.6806 9.03906C91.6806 9.29688 91.622 9.52734 91.5048 9.73047C91.3876 9.92578 91.2353 10.0898 91.0478 10.2227C90.8603 10.3555 90.6415 10.457 90.3915 10.5273C90.1494 10.5898 89.8994 10.6211 89.6415 10.6211C89.3681 10.6211 89.1064 10.5859 88.8564 10.5156C88.6142 10.4453 88.3994 10.3438 88.2119 10.2109C88.0244 10.0703 87.8759 9.90234 87.7665 9.70703C87.6572 9.51172 87.6025 9.28906 87.6025 9.03906C87.6025 8.8125 87.6533 8.60547 87.7548 8.41797C87.8642 8.22266 88.0087 8.05469 88.1884 7.91406C88.3681 7.77344 88.583 7.66406 88.833 7.58594C89.083 7.50781 89.3564 7.46875 89.6533 7.46875C89.9111 7.46875 90.1611 7.50391 90.4033 7.57422C90.6533 7.64453 90.872 7.74609 91.0595 7.87891C91.247 8.01172 91.3955 8.17578 91.5048 8.37109C91.622 8.56641 91.6806 8.78906 91.6806 9.03906ZM91.5048 22.6914C91.5048 23.4336 91.3525 24.0039 91.0478 24.4023C90.7509 24.8008 90.2548 25 89.5595 25C88.9033 25 88.4384 24.8008 88.165 24.4023C87.8994 24.0039 87.7665 23.4336 87.7665 22.6914V15.5195C87.7665 14.7773 87.8994 14.207 88.165 13.8086C88.4384 13.4102 88.9033 13.2109 89.5595 13.2109C90.2548 13.2109 90.7509 13.4102 91.0478 13.8086C91.3525 14.207 91.5048 14.7773 91.5048 15.5195V22.6914Z" fill="#D8D8D8"/>
<path d="M96.8936 19.0703C96.8936 19.5938 96.9326 20.082 97.0108 20.5352C97.0967 20.9883 97.2373 21.3867 97.4326 21.7305C97.6358 22.0664 97.9014 22.332 98.2295 22.5273C98.5654 22.7227 98.9795 22.8203 99.4717 22.8203C99.9248 22.8203 100.304 22.7266 100.609 22.5391C100.921 22.3438 101.171 22.0781 101.359 21.7422C101.546 21.3984 101.679 20.9961 101.757 20.5352C101.843 20.0742 101.886 19.5742 101.886 19.0352C101.886 18.6055 101.855 18.168 101.792 17.7227C101.73 17.2695 101.613 16.8594 101.441 16.4922C101.269 16.125 101.031 15.8242 100.726 15.5898C100.421 15.3555 100.023 15.2383 99.5303 15.2383C99.0381 15.2383 98.6201 15.3164 98.2764 15.4727C97.9404 15.6289 97.667 15.8672 97.4561 16.1875C97.2529 16.5078 97.1084 16.9102 97.0225 17.3945C96.9365 17.8711 96.8936 18.4297 96.8936 19.0703ZM96.8819 15.5195C97.0772 15.1055 97.3272 14.7422 97.6319 14.4297C97.9365 14.1172 98.2725 13.8555 98.6397 13.6445C99.0069 13.4336 99.3897 13.2773 99.7881 13.1758C100.195 13.0664 100.597 13.0117 100.995 13.0117C101.714 13.0117 102.363 13.1719 102.941 13.4922C103.519 13.8125 104.011 14.25 104.417 14.8047C104.831 15.3516 105.148 16 105.367 16.75C105.585 17.4922 105.695 18.2891 105.695 19.1406C105.695 20.0234 105.577 20.832 105.343 21.5664C105.117 22.3008 104.792 22.9336 104.37 23.4648C103.956 23.9883 103.456 24.3984 102.87 24.6953C102.292 24.9922 101.648 25.1406 100.937 25.1406C100.062 25.1406 99.2803 24.9375 98.5928 24.5312C97.9053 24.125 97.335 23.5547 96.8819 22.8203V27.0391C96.8819 27.7812 96.7295 28.3516 96.4248 28.75C96.1279 29.1484 95.6319 29.3477 94.9365 29.3477C94.2803 29.3477 93.8154 29.1484 93.542 28.75C93.2764 28.3516 93.1436 27.7812 93.1436 27.0391V15.5195C93.1436 14.7773 93.2764 14.207 93.542 13.8086C93.8154 13.4102 94.2803 13.2109 94.9365 13.2109C95.6319 13.2109 96.1279 13.4102 96.4248 13.8086C96.7295 14.207 96.8819 14.7773 96.8819 15.5195Z" fill="#D8D8D8"/>
<path d="M109.818 16.3516C109.818 16.6562 109.951 16.8945 110.216 17.0664C110.482 17.2305 110.849 17.3672 111.318 17.4766C111.763 17.5781 112.22 17.6758 112.689 17.7695C113.158 17.8633 113.615 17.9727 114.06 18.0977C114.505 18.2148 114.923 18.3555 115.314 18.5195C115.704 18.6836 116.048 18.8906 116.345 19.1406C116.642 19.3828 116.876 19.6797 117.048 20.0312C117.22 20.375 117.306 20.7891 117.306 21.2734C117.306 21.8828 117.181 22.4258 116.931 22.9023C116.681 23.3711 116.326 23.7695 115.865 24.0977C115.412 24.4258 114.869 24.6797 114.236 24.8594C113.603 25.0391 112.904 25.1328 112.138 25.1406C111.412 25.1406 110.712 25.0938 110.04 25C109.369 24.9141 108.771 24.7773 108.247 24.5898C107.732 24.4023 107.318 24.1719 107.005 23.8984C106.693 23.6172 106.537 23.2891 106.537 22.9141C106.537 22.5859 106.642 22.332 106.853 22.1523C107.064 21.9727 107.333 21.8828 107.662 21.8828C107.787 21.8828 107.935 21.9062 108.107 21.9531C108.279 22 108.466 22.0586 108.669 22.1289C108.872 22.1992 109.087 22.2773 109.314 22.3633C109.548 22.4414 109.79 22.5117 110.04 22.5742C110.353 22.6602 110.673 22.7305 111.001 22.7852C111.337 22.832 111.681 22.8555 112.033 22.8555C112.251 22.8555 112.466 22.8359 112.677 22.7969C112.888 22.75 113.076 22.6836 113.24 22.5977C113.412 22.5039 113.552 22.3867 113.662 22.2461C113.771 22.1055 113.837 21.9336 113.861 21.7305C113.884 21.6836 113.904 21.6367 113.919 21.5898C113.935 21.543 113.943 21.4883 113.943 21.4258C113.943 21.207 113.841 21.0117 113.638 20.8398C113.443 20.668 113.165 20.5312 112.806 20.4297C112.204 20.2891 111.63 20.1602 111.083 20.043C110.537 19.9258 110.029 19.8008 109.56 19.668C109.099 19.5352 108.677 19.3828 108.294 19.2109C107.919 19.0391 107.599 18.8281 107.333 18.5781C107.076 18.3281 106.872 18.0273 106.724 17.6758C106.583 17.3242 106.513 16.8984 106.513 16.3984C106.513 15.8594 106.634 15.3789 106.876 14.957C107.126 14.5273 107.482 14.168 107.943 13.8789C108.404 13.5898 108.962 13.3711 109.619 13.2227C110.275 13.0664 111.017 12.9883 111.845 12.9883C113.329 12.9883 114.458 13.168 115.232 13.5273C116.013 13.8789 116.404 14.3398 116.404 14.9102C116.404 15.2305 116.298 15.4766 116.087 15.6484C115.876 15.8125 115.622 15.8945 115.326 15.8945C115.169 15.8945 115.005 15.8672 114.833 15.8125C114.669 15.75 114.47 15.6836 114.236 15.6133C114.001 15.5352 113.72 15.4688 113.392 15.4141C113.072 15.3516 112.673 15.3203 112.197 15.3203C111.837 15.3203 111.509 15.3359 111.212 15.3672C110.923 15.3984 110.673 15.4531 110.462 15.5312C110.259 15.6094 110.099 15.7148 109.982 15.8477C109.872 15.9805 109.818 16.1484 109.818 16.3516Z" fill="#D8D8D8"/>
<path d="M122.062 20.6523C122.062 21.0195 122.109 21.3398 122.203 21.6133C122.304 21.8867 122.441 22.1172 122.613 22.3047C122.785 22.4844 122.984 22.6211 123.21 22.7148C123.445 22.8008 123.695 22.8438 123.96 22.8438C124.273 22.8438 124.574 22.7969 124.863 22.7031C125.152 22.6094 125.406 22.4648 125.625 22.2695C125.851 22.0742 126.031 21.8281 126.164 21.5312C126.296 21.2344 126.363 20.8867 126.363 20.4883V15.5195C126.363 14.7773 126.496 14.207 126.761 13.8086C127.035 13.4102 127.5 13.2109 128.156 13.2109C128.851 13.2109 129.347 13.4102 129.644 13.8086C129.949 14.207 130.101 14.7773 130.101 15.5195V22.6914C130.101 23.4336 129.949 24.0039 129.644 24.4023C129.347 24.8008 128.851 25 128.156 25C127.5 25 127.035 24.8008 126.761 24.4023C126.496 24.0039 126.363 23.4336 126.363 22.6914C126.199 23.0508 125.984 23.3789 125.718 23.6758C125.46 23.9727 125.156 24.2305 124.804 24.4492C124.46 24.6602 124.078 24.8242 123.656 24.9414C123.242 25.0586 122.792 25.1172 122.308 25.1172C121.785 25.1172 121.281 25.0273 120.796 24.8477C120.32 24.6602 119.898 24.3867 119.531 24.0273C119.164 23.6602 118.871 23.207 118.652 22.668C118.433 22.1289 118.324 21.5 118.324 20.7812V15.5195C118.324 14.7773 118.457 14.207 118.722 13.8086C118.996 13.4102 119.46 13.2109 120.117 13.2109C120.812 13.2109 121.308 13.4102 121.605 13.8086C121.91 14.207 122.062 14.7773 122.062 15.5195V20.6523Z" fill="#D8D8D8"/>
<path d="M131.797 15.5195C131.797 14.7773 131.93 14.207 132.196 13.8086C132.469 13.4102 132.934 13.2109 133.59 13.2109C134.286 13.2109 134.782 13.4102 135.079 13.8086C135.383 14.207 135.536 14.7773 135.536 15.5195C135.692 15.1445 135.903 14.8047 136.169 14.5C136.442 14.1875 136.751 13.9219 137.094 13.7031C137.446 13.4844 137.825 13.3164 138.231 13.1992C138.637 13.0742 139.059 13.0117 139.497 13.0117C139.903 13.0117 140.301 13.0664 140.692 13.1758C141.09 13.2773 141.458 13.4453 141.794 13.6797C142.137 13.9062 142.438 14.1953 142.696 14.5469C142.954 14.8984 143.153 15.3203 143.294 15.8125C143.536 15.2891 143.821 14.8477 144.149 14.4883C144.477 14.1289 144.833 13.8398 145.215 13.6211C145.598 13.4023 145.997 13.2461 146.411 13.1523C146.833 13.0586 147.254 13.0117 147.676 13.0117C148.176 13.0117 148.653 13.1016 149.106 13.2812C149.567 13.4609 149.969 13.7344 150.313 14.1016C150.665 14.4609 150.942 14.918 151.145 15.4727C151.356 16.0195 151.461 16.6602 151.461 17.3945V22.6914C151.461 23.4336 151.309 24.0039 151.004 24.4023C150.708 24.8008 150.211 25 149.516 25C148.86 25 148.395 24.8008 148.122 24.4023C147.856 24.0039 147.723 23.4336 147.723 22.6914V17.5586C147.723 17.207 147.676 16.8945 147.583 16.6211C147.489 16.3398 147.356 16.1055 147.184 15.918C147.02 15.7227 146.825 15.5781 146.598 15.4844C146.372 15.3828 146.129 15.332 145.872 15.332C145.551 15.332 145.247 15.3828 144.958 15.4844C144.669 15.5859 144.415 15.7422 144.196 15.9531C143.985 16.1641 143.813 16.4336 143.68 16.7617C143.555 17.0898 143.493 17.4844 143.493 17.9453V22.6914C143.493 23.4336 143.34 24.0039 143.036 24.4023C142.739 24.8008 142.243 25 141.547 25C140.891 25 140.426 24.8008 140.153 24.4023C139.887 24.0039 139.754 23.4336 139.754 22.6914V17.7812C139.754 16.9766 139.586 16.3672 139.251 15.9531C138.922 15.5391 138.473 15.332 137.903 15.332C137.567 15.332 137.254 15.3867 136.965 15.4961C136.676 15.6055 136.426 15.7656 136.215 15.9766C136.004 16.1875 135.836 16.4492 135.711 16.7617C135.594 17.0742 135.536 17.4336 135.536 17.8398V22.6914C135.536 23.4336 135.383 24.0039 135.079 24.4023C134.782 24.8008 134.286 25 133.59 25C132.934 25 132.469 24.8008 132.196 24.4023C131.93 24.0039 131.797 23.4336 131.797 22.6914V15.5195Z" fill="#D8D8D8"/>
<path d="M16.9966 23C13.6829 23 10.9966 20.3137 10.9966 17C10.9966 13.6863 13.6829 11 16.9966 11C20.3103 11 22.9966 13.6863 22.9966 17C22.9966 20.3137 20.3103 23 16.9966 23Z" fill="#D8D8D8"/>
<path d="M5.37263 19.0496C3.63388 19.3562 2.44206 21.0358 3.10951 22.6704C4.04135 24.9524 5.52798 26.9856 7.45529 28.5744C10.2112 30.8461 13.6872 32.06 17.2582 31.9977C20.8292 31.9354 24.2608 30.6009 26.9358 28.2343C28.8064 26.5793 30.2212 24.4954 31.0729 22.1823C31.6829 20.5254 30.4331 18.8884 28.6847 18.6427C26.9364 18.397 25.3666 19.6696 24.503 21.2096C24.0349 22.0443 23.4272 22.8016 22.6992 23.4457C21.1644 24.8036 19.1955 25.5692 17.1467 25.605C15.0978 25.6407 13.1034 24.9443 11.5222 23.6408C10.7721 23.0225 10.1384 22.2869 9.64142 21.469C8.72463 19.9601 7.11138 18.743 5.37263 19.0496Z" fill="#D8D8D8"/>
<path d="M31.8806 18.8745C31.9572 18.2604 31.9966 17.6348 31.9966 17C31.9966 8.71573 25.2809 2 16.9966 2C8.71231 2 1.99658 8.71573 1.99658 17C1.99658 17.8147 2.06153 18.6142 2.18654 19.3937C2.87552 18.4505 3.95084 17.7772 5.11234 17.5724C6.36903 17.3508 7.51116 17.6556 8.47685 18.2253C8.4198 17.8251 8.39028 17.416 8.39028 17C8.39028 12.2469 12.2435 8.3937 16.9966 8.3937C21.7497 8.3937 25.6029 12.2469 25.6029 17C25.6029 17.3134 25.5861 17.6229 25.5535 17.9276C26.4988 17.3243 27.6298 16.9796 28.8937 17.1573C30.0613 17.3214 31.1591 17.9564 31.8806 18.8745Z" fill="#D8D8D8"/>
</svg>
